<svg width="40" height="38" viewBox="0 0 40 38" fill="none" xmlns="http://www.w3.org/2000/svg">
<path d="M8.95357 38H0.660714V12.6293H8.95357V38ZM4.80268 9.16855C2.15089 9.16855 0 7.0819 0 4.56265C1.89803e-08 3.35256 0.505995 2.19203 1.40667 1.33637C2.30735 0.480706 3.52893 0 4.80268 0C6.07643 0 7.29801 0.480706 8.19869 1.33637C9.09936 2.19203 9.60536 3.35256 9.60536 4.56265C9.60536 7.0819 7.45357 9.16855 4.80268 9.16855ZM39.9911 38H31.7161V25.6497C31.7161 22.7064 31.6536 18.9317 27.4045 18.9317C23.0929 18.9317 22.4321 22.1296 22.4321 25.4377V38H14.1482V12.6293H22.1018V16.0901H22.2179C23.325 14.0968 26.0295 11.9932 30.0643 11.9932C38.4571 11.9932 40 17.2437 40 24.0635V38H39.9911Z" fill="white"/>
</svg>
