<svg width="48" height="35" viewBox="0 0 48 35" fill="none" xmlns="http://www.w3.org/2000/svg">
<path d="M43.0661 8.72256C43.0965 9.10536 43.0965 9.48823 43.0965 9.87102C43.0965 21.5467 33.1981 34.9998 15.1066 34.9998C9.53299 34.9998 4.35536 33.5505 0 31.035C0.791908 31.117 1.55325 31.1443 2.37563 31.1443C6.97455 31.1443 11.2081 29.7498 14.5889 27.3709C10.264 27.2889 6.63958 24.7459 5.39083 21.2459C6.00002 21.3279 6.60911 21.3826 7.24877 21.3826C8.13199 21.3826 9.01531 21.2732 9.83759 21.0819C5.32998 20.2615 1.94916 16.7069 1.94916 12.414V12.3046C3.25876 12.9609 4.78173 13.371 6.39583 13.4256C3.74607 11.8397 2.0101 9.13271 2.0101 6.07021C2.0101 4.42963 2.49732 2.92573 3.35017 1.61323C8.19283 6.97256 15.4721 10.4725 23.6344 10.8554C23.4822 10.1991 23.3908 9.51559 23.3908 8.83198C23.3908 3.96477 27.7766 0 33.2284 0C36.0608 0 38.6192 1.0664 40.4162 2.78904C42.6395 2.40625 44.7715 1.66794 46.6599 0.65625C45.9288 2.70706 44.3756 4.42971 42.335 5.52338C44.3147 5.33206 46.2335 4.83977 47.9999 4.15625C46.6601 5.90617 44.9848 7.46469 43.0661 8.72256V8.72256Z" fill="white"/>
</svg>
